<svg data-v-423bf9ae="" xmlns="http://www.w3.org/2000/svg" viewBox="0 0 771 90" class="iconLeftSlogan"><!----><!----><!----><g data-v-423bf9ae="" id="c69be481-505b-4018-b553-7b8a766a2102" fill="black" transform="matrix(4.20462495271727,0,0,4.20462495271727,97.34945206165679,-0.6306933805389185)"><path d="M7.71 8.47L7.71 8.47L7.71 3.82L7.59 1.98L6.70 1.83L6.70 1.35L8.23 1.38L9.73 1.35L9.73 1.83L8.88 1.98L8.77 3.82L8.77 10.78L7.28 10.78L7.08 10.49L2.49 3.53L2.49 8.20L2.51 9.25Q2.51 9.52 2.54 9.73Q2.57 9.95 2.61 10.04L2.61 10.04L3.50 10.20L3.50 10.68L1.97 10.64L0.46 10.68L0.46 10.20L1.32 10.04L1.43 8.20L1.43 3.56L1.39 2.60L1.32 1.98L0.46 1.83L0.46 1.35L2.22 1.38L3.03 1.38Q4.22 3.25 5.36 4.93L5.36 4.93Q5.74 5.52 6.14 6.09L6.14 6.09Q6.73 6.97 6.92 7.27L6.92 7.27Q7.45 8.07 7.71 8.47ZM14.62 6.87L14.62 6.87L14.13 6.87Q13.49 6.87 12.96 7.02Q12.43 7.17 12.05 7.45L12.05 7.45Q11.30 7.91 11.30 8.69L11.30 8.69Q11.30 9.04 11.64 9.35Q11.99 9.65 12.56 9.65L12.56 9.65Q13.51 9.65 14.07 8.85Q14.62 8.04 14.62 6.87ZM14.79 9.04L14.79 9.04Q14.10 10.23 13.36 10.54Q12.62 10.85 11.86 10.85L11.86 10.85Q10.83 10.85 10.19 10.28Q9.56 9.70 9.56 8.89L9.56 8.89Q9.56 7.58 10.90 6.83Q12.24 6.09 14.62 6.09L14.62 6.09L14.62 5.35Q14.62 4.65 14.27 4.41Q13.92 4.17 13.12 4.17L13.12 4.17Q12.31 4.17 11.78 4.36L11.78 4.36Q11.49 4.47 11.30 4.55L11.30 4.55Q11.26 4.56 11.21 4.59L11.21 4.59L11.21 5.28L10.74 5.43L10.03 3.85L11.01 3.54Q11.97 3.22 13.45 3.22L13.45 3.22Q15.74 3.22 16.07 4.58Q16.39 5.93 16.39 9.58L16.39 9.58L16.39 9.81L17.12 10.18L17.12 10.68L16.12 10.66L15.70 10.65L14.92 10.69Q14.89 10.63 14.87 10.53Q14.85 10.43 14.85 10.21L14.85 10.21Q14.85 9.97 14.83 9.68Q14.82 9.39 14.79 9.04ZM24.96 5.43L24.96 7.94Q24.96 8.35 24.97 8.72Q24.99 9.08 25.03 9.53Q25.08 9.98 25.10 10.04L25.10 10.04L25.86 10.20L25.86 10.68L24.15 10.64L23.34 10.68L23.34 10.20L23.33 10.04L23.33 6.43Q23.33 5.40 23.02 4.90L23.02 4.90Q22.75 4.40 21.99 4.40L21.99 4.40Q21.24 4.40 20.78 5.04L20.78 5.04Q20.36 5.67 20.36 6.73L20.36 6.73L20.36 7.94Q20.36 8.42 20.37 8.75Q20.39 9.08 20.43 9.39L20.43 9.39L20.51 10.04L21.26 10.20L21.26 10.68L19.55 10.64L17.84 10.68L17.84 10.20L18.59 10.04L18.66 9.39Q18.68 9.09 18.71 8.70Q18.73 8.32 18.73 7.94L18.73 7.94L18.73 3.42L18.73 3.22L18.73 3.05L18.73 2.91Q18.73 2.36 18.68 1.99L18.68 1.99Q18.68 1.73 18.66 1.53Q18.63 1.32 18.60 1.22L18.60 1.22L17.72 1.05L17.72 0.56L19.87 0.20L20.49 0.20L20.39 1.25L20.36 2.12L20.36 4.48Q20.90 3.84 21.52 3.53Q22.14 3.22 22.84 3.22L22.84 3.22Q23.81 3.22 24.38 3.82Q24.96 4.43 24.96 5.43L24.96 5.43ZM31.22 6.87L31.22 6.87L30.73 6.87Q30.09 6.87 29.55 7.02Q29.02 7.17 28.64 7.45L28.64 7.45Q27.89 7.91 27.89 8.69L27.89 8.69Q27.89 9.04 28.24 9.35Q28.58 9.65 29.16 9.65L29.16 9.65Q30.11 9.65 30.66 8.85Q31.22 8.04 31.22 6.87ZM31.38 9.04L31.38 9.04Q30.69 10.23 29.95 10.54Q29.22 10.85 28.45 10.85L28.45 10.85Q27.43 10.85 26.79 10.28Q26.15 9.70 26.15 8.89L26.15 8.89Q26.15 7.58 27.49 6.83Q28.83 6.09 31.22 6.09L31.22 6.09L31.22 5.35Q31.22 4.65 30.87 4.41Q30.51 4.17 29.72 4.17L29.72 4.17Q28.91 4.17 28.38 4.36L28.38 4.36Q28.08 4.47 27.89 4.55L27.89 4.55Q27.86 4.56 27.81 4.59L27.81 4.59L27.81 5.28L27.33 5.43L26.63 3.85L27.61 3.54Q28.57 3.22 30.05 3.22L30.05 3.22Q32.34 3.22 32.66 4.58Q32.99 5.93 32.99 9.58L32.99 9.58L32.99 9.81L33.72 10.18L33.72 10.68L32.72 10.66L32.30 10.65L31.51 10.69Q31.49 10.63 31.47 10.53Q31.44 10.43 31.44 10.21L31.44 10.21Q31.44 9.97 31.43 9.68Q31.42 9.39 31.38 9.04ZM36.09 4.21L36.09 8.03Q36.09 8.91 36.28 9.29L36.28 9.29Q36.45 9.67 36.94 9.67L36.94 9.67Q37.17 9.67 37.46 9.54L37.46 9.54Q37.70 9.41 37.90 9.22L37.90 9.22L38.34 9.71Q38.20 9.98 37.65 10.41Q37.10 10.84 36.28 10.84L36.28 10.84Q35.45 10.84 34.93 10.35L34.93 10.35Q34.46 9.85 34.46 9.02L34.46 9.02L34.46 4.21L33.50 4.21L33.50 3.72L34.46 3.42L34.40 1.85L36.15 1.49L36.09 3.42L38.03 3.35L37.65 4.25L36.09 4.21ZM39.65 1.12L39.65 1.12Q39.65 0.73 39.94 0.44Q40.22 0.15 40.62 0.15L40.62 0.15Q41.01 0.15 41.30 0.44Q41.58 0.73 41.58 1.12L41.58 1.12Q41.58 1.53 41.30 1.81Q41.01 2.10 40.62 2.10L40.62 2.10Q40.22 2.10 39.94 1.81Q39.65 1.53 39.65 1.12ZM41.44 5.09L41.44 7.94Q41.44 8.35 41.45 8.72Q41.46 9.08 41.51 9.53Q41.56 9.98 41.58 10.04L41.58 10.04L42.33 10.20L42.33 10.68L40.62 10.64L38.90 10.68L38.90 10.20L39.65 10.04L39.72 9.39Q39.75 9.09 39.77 8.70Q39.80 8.32 39.80 7.94L39.80 7.94L39.80 6.41L39.80 6.21L39.80 6.03L39.80 5.89Q39.80 5.35 39.75 4.98L39.75 4.98Q39.75 4.72 39.72 4.52Q39.70 4.31 39.66 4.21L39.66 4.21L38.78 4.04L38.78 3.55Q39.10 3.51 39.37 3.49Q39.64 3.46 39.87 3.41L39.87 3.41L40.96 3.17L41.57 3.17L41.46 4.22L41.44 5.09ZM49.99 6.22L52.62 6.22L51.28 2.37L49.99 6.22ZM55.92 10.03L56.69 10.20L56.69 10.68L54.82 10.64L52.96 10.68L52.96 10.20L53.84 10.04L52.93 7.09L49.70 7.09L48.84 10.04L49.67 10.20L49.67 10.68L48.16 10.64L46.66 10.68L46.66 10.20L47.39 10.07Q47.74 9.22 48.24 7.96L48.24 7.96Q48.71 6.80 49.07 5.84L49.07 5.84Q49.78 3.93 50.58 1.62L50.58 1.62L51.37 1.43L52.14 1.17L52.71 1.36Q53.09 2.50 53.44 3.51L53.44 3.51Q53.86 4.73 54.21 5.70L54.21 5.70Q54.94 7.70 55.92 10.03L55.92 10.03ZM64.26 5.43L64.26 7.94Q64.26 8.35 64.27 8.72Q64.28 9.08 64.33 9.53Q64.38 9.98 64.40 10.04L64.40 10.04L65.15 10.20L65.15 10.68L63.45 10.64L62.64 10.68L62.64 10.20L62.62 10.04L62.62 6.43Q62.62 5.40 62.31 4.90L62.31 4.90Q62.04 4.40 61.29 4.40L61.29 4.40Q60.54 4.40 60.07 5.04L60.07 5.04Q59.66 5.67 59.66 6.73L59.66 6.73L59.66 7.94Q59.66 8.42 59.67 8.75Q59.68 9.08 59.73 9.39L59.73 9.39L59.80 10.04L60.55 10.20L60.55 10.68L58.85 10.64L57.13 10.68L57.13 10.20L57.88 10.04L57.95 9.39Q57.98 9.09 58.00 8.70Q58.03 8.32 58.03 7.94L58.03 7.94L58.03 6.40L58.03 6.22L58.03 6.06Q58.03 5.81 58.01 5.55Q58.00 5.28 57.97 5.03L57.97 5.03L57.89 4.19L57.01 4.02L57.01 3.54Q57.32 3.54 57.57 3.50L57.57 3.50Q57.94 3.43 58.12 3.41L58.12 3.41Q58.62 3.32 58.74 3.30Q58.86 3.28 59.23 3.17L59.23 3.17L59.72 3.17L59.66 4.48Q60.19 3.84 60.81 3.53Q61.43 3.22 62.14 3.22L62.14 3.22Q63.10 3.22 63.68 3.82Q64.26 4.43 64.26 5.43L64.26 5.43ZM70.36 4.00L69.71 3.86L69.71 3.38L70.95 3.42L72.22 3.38L72.22 3.85L71.79 4.00Q71.05 5.71 70.38 7.49L70.38 7.49L69.11 10.99Q68.55 12.61 67.58 13.51Q66.62 14.42 65.29 14.42L65.29 14.42Q65.10 14.42 64.92 14.41Q64.75 14.39 64.60 14.36L64.60 14.36Q64.32 14.32 64.11 14.20L64.11 14.20L64.61 12.32L65.07 12.37L65.15 13.02L65.44 13.12L65.81 13.15Q66.62 13.15 67.30 12.41Q67.97 11.66 68.20 10.93L68.20 10.93L68.28 10.68L67.66 10.68Q67.09 8.92 66.44 7.28Q65.79 5.64 65.07 4.02L65.07 4.02L64.50 3.86L64.50 3.38L66.08 3.42L67.68 3.38L67.68 3.85L67.00 4.00Q67.41 5.47 67.87 6.76L67.87 6.76L68.77 9.52L69.63 6.77Q69.99 5.49 70.36 4.00L70.36 4.00ZM75.16 4.21L75.16 8.03Q75.16 8.91 75.35 9.29L75.35 9.29Q75.52 9.67 76.01 9.67L76.01 9.67Q76.24 9.67 76.53 9.54L76.53 9.54Q76.77 9.41 76.97 9.22L76.97 9.22L77.41 9.71Q77.27 9.98 76.72 10.41Q76.17 10.84 75.35 10.84L75.35 10.84Q74.52 10.84 74.00 10.35L74.00 10.35Q73.53 9.85 73.53 9.02L73.53 9.02L73.53 4.21L72.57 4.21L72.57 3.72L73.53 3.42L73.47 1.85L75.22 1.49L75.16 3.42L77.10 3.35L76.72 4.25L75.16 4.21ZM78.72 1.12L78.72 1.12Q78.72 0.73 79.01 0.44Q79.29 0.15 79.69 0.15L79.69 0.15Q80.08 0.15 80.37 0.44Q80.65 0.73 80.65 1.12L80.65 1.12Q80.65 1.53 80.37 1.81Q80.08 2.10 79.69 2.10L79.69 2.10Q79.29 2.10 79.01 1.81Q78.72 1.53 78.72 1.12ZM80.51 5.09L80.51 7.94Q80.51 8.35 80.52 8.72Q80.53 9.08 80.58 9.53Q80.63 9.98 80.65 10.04L80.65 10.04L81.40 10.20L81.40 10.68L79.69 10.64L77.97 10.68L77.97 10.20L78.72 10.04L78.79 9.39Q78.82 9.09 78.84 8.70Q78.86 8.32 78.86 7.94L78.86 7.94L78.86 6.41L78.86 6.21L78.86 6.03L78.86 5.89Q78.86 5.35 78.82 4.98L78.82 4.98Q78.82 4.72 78.79 4.52Q78.77 4.31 78.73 4.21L78.73 4.21L77.85 4.04L77.85 3.55Q78.17 3.51 78.44 3.49Q78.71 3.46 78.94 3.41L78.94 3.41L80.03 3.17L80.64 3.17L80.53 4.22L80.51 5.09ZM93.58 5.43L93.58 7.94Q93.58 8.42 93.59 8.75Q93.60 9.08 93.65 9.39L93.65 9.39L93.72 10.04L94.47 10.20L94.47 10.68L92.77 10.64L91.95 10.68L91.95 6.43Q91.95 5.42 91.67 4.90L91.67 4.90Q91.38 4.40 90.67 4.40L90.67 4.40Q89.97 4.40 89.52 5.04L89.52 5.04Q89.11 5.68 89.11 6.73L89.11 6.73L89.11 7.94Q89.11 8.42 89.12 8.75Q89.14 9.08 89.18 9.39L89.18 9.39L89.25 10.04L90.01 10.20L90.01 10.68L88.30 10.64L86.60 10.68L86.60 10.20L87.35 10.04L87.41 9.39Q87.48 8.79 87.48 7.94L87.48 7.94L87.48 6.43Q87.48 5.42 87.21 4.90L87.21 4.90Q86.91 4.40 86.20 4.40L86.20 4.40Q85.47 4.40 85.05 5.04Q84.64 5.68 84.64 6.73L84.64 6.73L84.64 7.94Q84.64 8.35 84.66 8.72Q84.67 9.08 84.71 9.53Q84.76 9.98 84.79 10.04L84.79 10.04L85.54 10.20L85.54 10.68L83.83 10.64L82.12 10.68L82.12 10.20L82.87 10.04L82.94 9.39Q82.96 9.09 82.99 8.70Q83.01 8.32 83.01 7.94L83.01 7.94L83.01 6.40L83.01 6.22L83.01 6.06Q83.01 5.81 83.00 5.55Q82.99 5.28 82.95 5.03L82.95 5.03L82.88 4.19L82.00 4.02L82.00 3.54Q82.30 3.54 82.55 3.50L82.55 3.50Q82.92 3.43 83.09 3.41L83.09 3.41Q83.49 3.35 83.68 3.31Q83.87 3.26 84.21 3.17L84.21 3.17L84.70 3.17L84.64 4.48Q85.18 3.84 85.76 3.53Q86.35 3.22 87.04 3.22L87.04 3.22Q87.79 3.22 88.28 3.59Q88.78 3.97 88.98 4.58L88.98 4.58Q89.15 4.33 89.36 4.11Q89.58 3.90 89.91 3.66L89.91 3.66Q90.51 3.22 91.52 3.22L91.52 3.22Q92.45 3.22 93.01 3.82Q93.58 4.43 93.58 5.43L93.58 5.43ZM100.76 8.42L101.29 8.92Q101.04 9.28 100.70 9.60Q100.37 9.93 99.89 10.23L99.89 10.23Q98.95 10.84 97.89 10.84L97.89 10.84Q96.18 10.84 95.20 9.85Q94.22 8.86 94.22 7.11L94.22 7.11Q94.22 5.50 95.38 4.36Q96.53 3.22 98.17 3.22L98.17 3.22Q99.51 3.22 100.34 4.02Q101.17 4.83 101.17 6.08L101.17 6.08L101.17 6.49L96.06 6.49Q96.06 8.03 96.61 8.84Q97.17 9.65 98.36 9.65L98.36 9.65Q99.18 9.65 99.82 9.21Q100.45 8.77 100.76 8.42L100.76 8.42ZM96.11 5.79L96.11 5.79L99.41 5.64L99.41 5.48Q99.41 4.77 99.07 4.38Q98.74 4.00 98.06 4.00L98.06 4.00Q97.17 4.00 96.59 4.67L96.59 4.67Q96.26 5.10 96.11 5.79ZM108.81 3.82L108.81 3.82L108.81 7.26Q108.81 7.72 108.82 8.21Q108.84 8.70 108.85 9.00L108.85 9.00L108.90 9.75L109.97 9.75Q111.24 9.75 112.08 9.63Q112.92 9.52 113.06 9.45L113.06 9.45L113.55 8.51L114.05 8.70L113.61 10.64L107.94 10.64L106.08 10.68L106.08 10.20L106.95 10.04L107.06 8.20L107.06 3.82L106.95 1.98L106.08 1.83L106.08 1.35L107.94 1.38L109.95 1.35L109.95 1.83L108.94 1.98L108.85 2.78Q108.81 3.34 108.81 3.82ZM119.30 6.87L119.30 6.87L118.82 6.87Q118.17 6.87 117.64 7.02Q117.11 7.17 116.73 7.45L116.73 7.45Q115.98 7.91 115.98 8.69L115.98 8.69Q115.98 9.04 116.33 9.35Q116.67 9.65 117.24 9.65L117.24 9.65Q118.20 9.65 118.75 8.85Q119.30 8.04 119.30 6.87ZM119.47 9.04L119.47 9.04Q118.78 10.23 118.04 10.54Q117.30 10.85 116.54 10.85L116.54 10.85Q115.51 10.85 114.88 10.28Q114.24 9.70 114.24 8.89L114.24 8.89Q114.24 7.58 115.58 6.83Q116.92 6.09 119.30 6.09L119.30 6.09L119.30 5.35Q119.30 4.65 118.95 4.41Q118.60 4.17 117.80 4.17L117.80 4.17Q116.99 4.17 116.47 4.36L116.47 4.36Q116.17 4.47 115.98 4.55L115.98 4.55Q115.94 4.56 115.90 4.59L115.90 4.59L115.90 5.28L115.42 5.43L114.72 3.85L115.69 3.54Q116.66 3.22 118.14 3.22L118.14 3.22Q120.42 3.22 120.75 4.58Q121.08 5.93 121.08 9.58L121.08 9.58L121.08 9.81L121.81 10.18L121.81 10.68L120.81 10.66L120.39 10.65L119.60 10.69Q119.58 10.63 119.55 10.53Q119.53 10.43 119.53 10.21L119.53 10.21Q119.53 9.97 119.52 9.68Q119.51 9.39 119.47 9.04ZM128.57 3.22L128.51 4.35L128.51 8.04L128.53 9.33Q128.53 9.48 128.54 9.58Q128.55 9.67 128.63 10.04L128.63 10.04L129.40 10.20L129.38 10.68L128.20 10.64L126.95 10.68L126.95 9.32Q126.44 10.08 125.78 10.46Q125.12 10.84 124.38 10.84L124.38 10.84Q123.45 10.84 122.83 10.22Q122.21 9.60 122.21 8.65L122.21 8.65L122.21 6.05Q122.21 5.52 122.16 5.00L122.16 5.00Q122.16 4.72 122.13 4.51Q122.09 4.30 122.08 4.23L122.08 4.23L121.20 4.06L121.20 3.57Q121.48 3.57 121.62 3.56Q121.76 3.55 122.29 3.44L122.29 3.44Q122.85 3.37 123.37 3.22L123.37 3.22L123.97 3.22L123.86 5.64L123.86 7.55Q123.86 8.59 124.17 9.12Q124.47 9.65 125.12 9.65L125.12 9.65Q125.96 9.65 126.42 8.91Q126.88 8.17 126.88 6.92L126.88 6.92L126.88 6.05Q126.88 5.81 126.87 5.55Q126.86 5.29 126.82 5.00L126.82 5.00L126.75 4.23L125.87 4.06L125.87 3.57Q126.12 3.57 126.33 3.54Q126.54 3.51 126.91 3.44L126.91 3.44Q127.42 3.37 127.95 3.22L127.95 3.22L128.57 3.22ZM137.15 5.43L137.15 7.94Q137.15 8.35 137.16 8.72Q137.18 9.08 137.22 9.53Q137.27 9.98 137.30 10.04L137.30 10.04L138.05 10.20L138.05 10.68L136.34 10.64L135.53 10.68L135.53 10.20L135.52 10.04L135.52 6.43Q135.52 5.40 135.21 4.90L135.21 4.90Q134.94 4.40 134.19 4.40L134.19 4.40Q133.43 4.40 132.97 5.04L132.97 5.04Q132.55 5.67 132.55 6.73L132.55 6.73L132.55 7.94Q132.55 8.42 132.57 8.75Q132.58 9.08 132.62 9.39L132.62 9.39L132.70 10.04L133.45 10.20L133.45 10.68L131.74 10.64L130.03 10.68L130.03 10.20L130.78 10.04L130.85 9.39Q130.87 9.09 130.90 8.70Q130.92 8.32 130.92 7.94L130.92 7.94L130.92 6.40L130.92 6.22L130.92 6.06Q130.92 5.81 130.91 5.55Q130.90 5.28 130.86 5.03L130.86 5.03L130.79 4.19L129.91 4.02L129.91 3.54Q130.22 3.54 130.47 3.50L130.47 3.50Q130.84 3.43 131.02 3.41L131.02 3.41Q131.52 3.32 131.64 3.30Q131.75 3.28 132.12 3.17L132.12 3.17L132.61 3.17L132.55 4.48Q133.09 3.84 133.71 3.53Q134.33 3.22 135.03 3.22L135.03 3.22Q136.00 3.22 136.57 3.82Q137.15 4.43 137.15 5.43L137.15 5.43ZM143.18 10.68L143.18 9.48Q142.72 10.20 142.15 10.52Q141.58 10.84 140.97 10.84L140.97 10.84Q139.59 10.84 138.75 9.88Q137.91 8.92 137.91 7.39L137.91 7.39Q137.91 5.54 139.02 4.38Q140.13 3.22 141.89 3.22L141.89 3.22Q142.25 3.22 142.53 3.28L142.53 3.28L143.06 3.35L143.06 3.42L143.03 1.99Q143.03 1.68 143.00 1.52Q142.98 1.36 142.93 1.22L142.93 1.22L142.05 1.05L142.05 0.56L144.22 0.20L144.83 0.20L144.73 1.25L144.69 2.12L144.69 7.98Q144.69 8.38 144.71 8.75Q144.73 9.11 144.74 9.33L144.74 9.33Q144.74 9.78 144.85 10.04L144.85 10.04Q144.96 10.04 145.01 10.06Q145.06 10.07 145.22 10.10L145.22 10.10L145.60 10.20L145.60 10.68L144.40 10.64L143.18 10.68ZM143.09 6.84L143.09 6.84L143.09 4.48Q142.97 4.40 142.64 4.28Q142.31 4.17 141.75 4.17L141.75 4.17Q140.70 4.17 140.18 4.85Q139.67 5.53 139.67 6.85L139.67 6.85Q139.67 8.15 140.13 8.90Q140.60 9.65 141.50 9.65L141.50 9.65Q142.32 9.65 142.70 8.92Q143.09 8.19 143.09 6.84ZM148.76 7.08L148.76 7.94Q148.76 8.42 148.77 8.75Q148.78 9.08 148.84 9.54Q148.90 10.00 148.92 10.04L148.92 10.04L149.82 10.20L149.82 10.68L147.95 10.64L146.23 10.68L146.23 10.20L146.98 10.04L147.05 9.39Q147.08 9.09 147.10 8.70Q147.13 8.32 147.13 7.94L147.13 7.94L147.13 6.40L147.13 6.22L147.13 6.06Q147.13 5.81 147.11 5.55Q147.10 5.28 147.07 5.03L147.07 5.03L146.99 4.19L146.11 4.02L146.11 3.54Q146.40 3.54 146.64 3.50L146.64 3.50Q146.98 3.43 147.15 3.41L147.15 3.41Q147.49 3.35 147.69 3.31Q147.88 3.26 148.20 3.17L148.20 3.17L148.61 3.17L148.57 5.24Q148.90 4.24 149.60 3.72L149.60 3.72Q149.94 3.48 150.28 3.35Q150.62 3.22 150.97 3.22L150.97 3.22Q151.12 3.22 151.25 3.24Q151.39 3.26 151.55 3.31Q151.70 3.35 151.80 3.43L151.80 3.43L151.38 4.48L151.15 5.27Q150.68 5.16 150.66 5.05L150.66 5.05Q150.66 4.91 150.69 4.84L150.69 4.84Q150.69 4.55 150.60 4.52Q150.51 4.48 150.35 4.48L150.35 4.48Q149.71 4.48 149.23 5.23Q148.76 5.98 148.76 7.08L148.76 7.08ZM158.29 4.00L157.65 3.86L157.65 3.38L158.89 3.42L160.15 3.38L160.15 3.85L159.72 4.00Q158.98 5.71 158.31 7.49L158.31 7.49L157.04 10.99Q156.48 12.61 155.51 13.51Q154.55 14.42 153.23 14.42L153.23 14.42Q153.03 14.42 152.86 14.41Q152.68 14.39 152.53 14.36L152.53 14.36Q152.25 14.32 152.05 14.20L152.05 14.20L152.55 12.32L153.00 12.37L153.08 13.02L153.37 13.12L153.74 13.15Q154.55 13.15 155.23 12.41Q155.91 11.66 156.13 10.93L156.13 10.93L156.22 10.68L155.60 10.68Q155.02 8.92 154.38 7.28Q153.73 5.64 153.00 4.02L153.00 4.02L152.43 3.86L152.43 3.38L154.01 3.42L155.61 3.38L155.61 3.85L154.93 4.00Q155.35 5.47 155.80 6.76L155.80 6.76L156.70 9.52L157.56 6.77Q157.92 5.49 158.29 4.00L158.29 4.00Z"></path></g><!----><g data-v-423bf9ae="" id="9c254cc4-188c-4ee3-8998-05f2e0b64f30" transform="matrix(1.0714285714285714,0,0,1.0714285714285714,-16.78463976723807,-11.785714285714285)" stroke="none" fill="black"><circle cx="31.998" cy="55.008" r="3"></circle><circle cx="40.998" cy="55.008" r="3"></circle><path d="M67.407 22c-.879 0-1.591-.672-1.591-1.5 0-3.584-3.807-6.5-8.486-6.5-2.347 0-4.534.726-6.159 2.043a1.659 1.659 0 01-2.174-.088C47.688 14.694 45.939 14 44.074 14c-3.802 0-6.895 2.916-6.895 6.5 0 .828-.712 1.5-1.591 1.5s-1.591-.672-1.591-1.5c0-5.238 4.52-9.5 10.076-9.5 2.252 0 4.387.691 6.14 1.97 2.032-1.278 4.51-1.97 7.117-1.97 6.434 0 11.667 4.262 11.667 9.5.001.828-.712 1.5-1.59 1.5zM49.998 87.5c-5.238 0-9.5-4.262-9.5-9.5s4.262-9.5 9.5-9.5 9.5 4.262 9.5 9.5-4.262 9.5-9.5 9.5z"></path><path d="M49.998 70c4.411 0 8 3.589 8 8s-3.589 8-8 8-8-3.589-8-8 3.588-8 8-8m0-3c-6.075 0-11 4.928-11 11s4.925 11 11 11 11-4.928 11-11-4.926-11-11-11z"></path><path d="M74.998 67a10.987 10.987 0 00-9.148 4.896C63.394 65.526 57.232 61 49.998 61c-9.389 0-17 7.611-17 17s7.611 17 17 17c7.234 0 13.396-4.526 15.852-10.896A10.984 10.984 0 0074.998 89c6.075 0 11-4.928 11-11s-4.926-11-11-11zm-25 25c-7.72 0-14-6.28-14-14s6.28-14 14-14 14 6.28 14 14-6.281 14-14 14zm25-6c-4.411 0-8-3.589-8-8s3.589-8 8-8 8 3.589 8 8-3.589 8-8 8zM88.498 75c-.825 0-1.5.675-1.5 1.5v3c0 .825.675 1.5 1.5 1.5s1.5-.675 1.5-1.5v-3c0-.825-.675-1.5-1.5-1.5z"></path><path d="M83.998 46.008c0-.748-.334-1.425-.867-1.951-.027-.032-.058-.06-.086-.09-.033-.03-.062-.064-.096-.093-.526-.532-1.203-.866-1.95-.866h-62c-.747 0-1.424.334-1.95.866-.035.028-.063.062-.096.093-.028.03-.06.058-.086.09-.533.526-.867 1.203-.867 1.951V95h6V49.008h56v12.5c0 1.925 1.35 3.5 3 3.5s3-1.575 3-3.5v-15c-.002-.099-.002-.428-.002-.5zM70.498 25h-38c-.825 0-1.5.675-1.5 1.5s.675 1.5 1.5 1.5h.984c.01.038.015.076.029.114l3.741 10.28c.169.465.746 1.606 2.248 1.606h24c1.498 0 2.032-.72 2.243-1.301l3.741-10.28c.05-.138.072-.278.08-.419h.933c.825 0 1.5-.675 1.5-1.5s-.674-1.5-1.499-1.5zm-28.5 12h-2.061l-1.092-3h3.152v3zm0-6h-4.245l-1.092-3h5.336v3zm8 6h-5v-3h5v3zm0-6h-5v-3h5v3zm8 6h-5v-3h5v3zm0-6h-5v-3h5v3zm5.171 6h-2.171v-3h3.263l-1.092 3zm2.184-6h-4.355v-3h5.447l-1.092 3z"></path></g><!----><g data-v-423bf9ae="" id="8bb14b7b-bb17-49c9-b2b8-648c0b364765" fill="black" transform="matrix(1.6231504130764687,0,0,1.6231504130764687,98.4395251574357,55.55256848037101)"><path d="M0.76 3.64L0.52 3.64L0.52 3.08L3.62 3.08L3.61 3.64L3.30 3.64Q2.47 3.64 2.47 3.94L2.47 3.94Q2.47 4.03 2.51 4.09L2.51 4.09L4.93 10.76L7.24 4.85L7.14 4.57Q7.11 4.52 7.09 4.44Q7.07 4.36 7.05 4.31Q7.03 4.25 7.01 4.22L7.01 4.22Q6.99 4.16 6.89 3.96L6.89 3.96Q6.81 3.80 6.69 3.71L6.69 3.71Q6.61 3.64 6.44 3.64L6.44 3.64L5.76 3.64L5.76 3.08L9.08 3.08L9.08 3.64L8.35 3.64Q8.11 3.64 8.05 3.68L8.05 3.68Q7.98 3.72 7.98 3.86Q7.98 4.00 8.23 4.76L8.23 4.76L10.27 10.72L12.77 4.18Q12.82 4.01 12.82 3.94L12.82 3.94Q12.82 3.75 12.65 3.69L12.65 3.69Q12.50 3.64 12.14 3.64L12.14 3.64L11.77 3.64L11.77 3.08L14.17 3.08L14.18 3.64L14.01 3.64Q13.67 3.64 13.57 3.77L13.57 3.77Q13.45 3.96 13.20 4.60L13.20 4.60L10.11 12.64L9.87 12.64L7.49 5.64L4.77 12.63L4.55 12.63L1.58 4.52Q1.37 3.96 1.20 3.79L1.20 3.79Q1.05 3.63 0.76 3.64L0.76 3.64ZM21.93 12.41L21.92 11.87L22.09 11.87Q22.48 11.87 22.61 11.73L22.61 11.73Q22.73 11.57 23.06 10.83L23.06 10.83L23.97 8.82L24.55 7.53Q24.81 6.97 24.86 6.86L24.86 6.86Q24.92 6.70 24.98 6.60Q25.03 6.51 25.04 6.45L25.04 6.45L25.14 6.21L26.56 2.74L26.86 2.74Q27.71 4.98 29.90 10.25L29.90 10.25Q30.35 11.34 30.54 11.64L30.54 11.64Q30.68 11.87 31.12 11.87L31.12 11.87L31.33 11.87L31.32 12.41L28.12 12.41L28.14 11.87L28.55 11.87Q29.17 11.87 29.17 11.70L29.17 11.70Q29.17 11.63 29.03 11.27L29.03 11.27L27.99 8.72L24.75 8.72L23.64 11.18Q23.50 11.50 23.50 11.63L23.50 11.63Q23.50 11.79 23.60 11.83Q23.69 11.87 24.08 11.87L24.08 11.87L24.65 11.87L24.65 12.41L21.93 12.41ZM26.43 4.79L25.01 8.10L27.75 8.10L26.43 4.79ZM39.03 10.04L39.03 10.04L39.53 9.98L39.71 10.85Q39.82 11.33 39.89 11.41Q39.96 11.49 40.37 11.64L40.37 11.64Q41.21 11.95 42.10 11.95L42.10 11.95Q42.89 11.95 43.43 11.49L43.43 11.49Q43.96 11.04 43.96 10.26L43.96 10.26Q43.96 9.65 43.50 9.21L43.50 9.21Q43.03 8.76 42.17 8.30L42.17 8.30L41.60 7.98Q40.85 7.55 40.62 7.36L40.62 7.36Q40.26 7.08 39.95 6.59Q39.63 6.10 39.63 5.46L39.63 5.46Q39.63 4.39 40.48 3.68Q41.32 2.97 42.42 2.97L42.42 2.97Q42.70 2.97 43.05 3.04L43.05 3.04Q43.25 3.08 43.59 3.17L43.59 3.17L43.83 3.25Q43.92 3.25 43.96 3.16L43.96 3.16Q44.02 3.05 44.02 2.98L44.02 2.98L44.03 2.88L44.51 2.85L44.72 5.41L44.21 5.43L44.09 4.18Q43.35 3.62 42.18 3.62L42.18 3.62Q41.54 3.62 41.04 4.05L41.04 4.05Q40.56 4.47 40.56 5.12L40.56 5.12Q40.56 5.72 41.01 6.17L41.01 6.17Q41.44 6.60 42.31 7.08L42.31 7.08L43.08 7.50Q44.03 8.03 44.56 8.59Q45.10 9.15 45.10 9.92L45.10 9.92Q45.10 10.99 44.24 11.76L44.24 11.76Q43.37 12.54 41.92 12.54L41.92 12.54Q41.36 12.54 40.85 12.41Q40.35 12.29 40.30 12.29L40.30 12.29Q40.04 12.29 40.04 12.58L40.04 12.58L40.06 12.76L39.58 12.80Q39.52 12.41 39.03 10.04ZM53.65 3.64L53.28 3.64L53.28 3.08L56.77 3.08L56.77 3.64L56.40 3.64Q55.90 3.64 55.75 3.75L55.75 3.75Q55.61 3.84 55.60 4.25L55.60 4.25L55.60 6.91L60.16 6.91L60.16 4.14Q60.16 3.77 60.06 3.71L60.06 3.71Q59.95 3.64 59.42 3.64L59.42 3.64L58.84 3.64L58.82 3.08L62.38 3.08L62.38 3.64L61.99 3.64Q61.51 3.64 61.40 3.74Q61.29 3.83 61.29 4.22L61.29 4.22L61.29 11.29Q61.29 11.67 61.43 11.77L61.43 11.77Q61.58 11.87 62.13 11.87L62.13 11.87L62.60 11.87L62.59 12.41L59.10 12.41L59.09 11.87L59.50 11.87Q59.96 11.87 60.06 11.77Q60.16 11.67 60.16 11.25L60.16 11.25L60.16 7.58L55.60 7.58L55.60 11.25Q55.60 11.67 55.76 11.77Q55.91 11.87 56.62 11.87L56.62 11.87L57.02 11.87L56.99 12.41L53.41 12.41L53.40 11.87L53.76 11.87Q54.30 11.87 54.37 11.80L54.37 11.80Q54.47 11.70 54.47 11.25L54.47 11.25L54.47 4.09Q54.47 3.76 54.33 3.71L54.33 3.71Q54.16 3.64 53.65 3.64L53.65 3.64ZM70.93 3.64L70.34 3.64L70.36 3.08L73.87 3.08L73.87 3.64L73.64 3.64Q73.09 3.64 72.92 3.73L72.92 3.73Q72.78 3.81 72.78 4.28L72.78 4.28L72.78 11.22Q72.78 11.68 72.89 11.77Q73.00 11.87 73.53 11.87L73.53 11.87L74.08 11.87L74.09 12.41L70.51 12.41L70.50 11.87L70.86 11.87Q71.42 11.87 71.53 11.77Q71.65 11.67 71.65 11.25L71.65 11.25L71.65 4.14Q71.65 3.77 71.54 3.71L71.54 3.71Q71.44 3.64 70.93 3.64L70.93 3.64ZM81.85 3.64L81.83 3.08L84.01 3.08L89.74 10.48L89.74 4.14Q89.74 3.81 89.59 3.72Q89.43 3.64 88.98 3.64L88.98 3.64L88.48 3.64L88.51 3.08L91.49 3.08L91.49 3.64L91.17 3.64Q90.71 3.64 90.56 3.75Q90.41 3.86 90.41 4.25L90.41 4.25L90.41 12.32L90.41 12.47Q90.41 12.52 90.39 12.57Q90.38 12.61 90.34 12.64L90.34 12.64Q90.33 12.65 90.28 12.65L90.28 12.65L90.08 12.65L90.02 12.65L90.00 12.65L89.97 12.64Q89.94 12.64 89.93 12.63Q89.91 12.61 89.91 12.60Q89.91 12.58 89.90 12.57L89.90 12.57Q89.87 12.54 89.84 12.50L89.84 12.50Q89.83 12.48 89.81 12.45Q89.79 12.41 89.78 12.40L89.78 12.40L83.67 4.56L83.74 11.22Q83.74 11.67 83.90 11.77L83.90 11.77Q84.06 11.87 84.77 11.87L84.77 11.87L85.01 11.87L85.01 12.41L82.07 12.41L82.07 11.87L82.50 11.87Q82.87 11.87 82.98 11.76L82.98 11.76Q83.08 11.66 83.08 11.25L83.08 11.25L83.08 3.80L82.94 3.64L81.85 3.64ZM99.61 8.24L99.61 8.24Q99.61 6.92 100.23 5.72Q100.84 4.52 102.07 3.72L102.07 3.72Q103.31 2.92 104.93 2.92L104.93 2.92Q106.20 2.92 107.79 3.57L107.79 3.57L107.79 2.86L108.35 2.86L108.45 5.92L107.90 5.93L107.80 4.48Q107.72 4.41 107.45 4.24L107.45 4.24Q107.19 4.07 106.44 3.83L106.44 3.83Q105.72 3.60 104.82 3.60L104.82 3.60Q103.84 3.60 103.07 3.93Q102.30 4.27 101.83 4.83L101.83 4.83Q101.37 5.39 101.12 6.08L101.12 6.08Q100.87 6.78 100.87 7.57L100.87 7.57Q100.87 9.33 101.99 10.69Q103.11 12.05 104.97 12.05L104.97 12.05Q105.67 12.05 106.30 11.85Q106.93 11.66 107.15 11.48L107.15 11.48L107.39 11.28L107.39 8.78L105.73 8.78L105.72 8.23L109.58 8.23L109.59 8.78L108.53 8.78L108.53 11.64L107.74 11.98Q107.04 12.30 106.82 12.39L106.82 12.39Q106.57 12.48 105.92 12.61L105.92 12.61Q105.31 12.74 104.71 12.74L104.71 12.74Q103.41 12.74 102.44 12.37L102.44 12.37Q101.45 12.00 100.83 11.36L100.83 11.36Q100.24 10.76 99.92 9.94L99.92 9.94Q99.61 9.15 99.61 8.24ZM127.49 3.64L126.90 3.64L126.92 3.08L130.43 3.08L130.43 3.64L130.20 3.64Q129.65 3.64 129.48 3.73L129.48 3.73Q129.34 3.81 129.34 4.28L129.34 4.28L129.34 11.22Q129.34 11.68 129.45 11.77Q129.56 11.87 130.09 11.87L130.09 11.87L130.64 11.87L130.66 12.41L127.07 12.41L127.06 11.87L127.42 11.87Q127.98 11.87 128.10 11.77Q128.21 11.67 128.21 11.25L128.21 11.25L128.21 4.14Q128.21 3.77 128.11 3.71L128.11 3.71Q128.00 3.64 127.49 3.64L127.49 3.64ZM138.37 10.04L138.37 10.04L138.86 9.98L139.04 10.85Q139.15 11.33 139.22 11.41Q139.29 11.49 139.70 11.64L139.70 11.64Q140.54 11.95 141.44 11.95L141.44 11.95Q142.22 11.95 142.76 11.49L142.76 11.49Q143.29 11.04 143.29 10.26L143.29 10.26Q143.29 9.65 142.84 9.21L142.84 9.21Q142.36 8.76 141.50 8.30L141.50 8.30L140.93 7.98Q140.18 7.55 139.95 7.36L139.95 7.36Q139.59 7.08 139.28 6.59Q138.97 6.10 138.97 5.46L138.97 5.46Q138.97 4.39 139.81 3.68Q140.65 2.97 141.76 2.97L141.76 2.97Q142.04 2.97 142.39 3.04L142.39 3.04Q142.58 3.08 142.92 3.17L142.92 3.17L143.16 3.25Q143.25 3.25 143.29 3.16L143.29 3.16Q143.35 3.05 143.35 2.98L143.35 2.98L143.36 2.88L143.84 2.85L144.05 5.41L143.55 5.43L143.42 4.18Q142.68 3.62 141.52 3.62L141.52 3.62Q140.88 3.62 140.37 4.05L140.37 4.05Q139.89 4.47 139.89 5.12L139.89 5.12Q139.89 5.72 140.34 6.17L140.34 6.17Q140.77 6.60 141.64 7.08L141.64 7.08L142.41 7.50Q143.36 8.03 143.90 8.59Q144.43 9.15 144.43 9.92L144.43 9.92Q144.43 10.99 143.58 11.76L143.58 11.76Q142.71 12.54 141.25 12.54L141.25 12.54Q140.69 12.54 140.19 12.41Q139.69 12.29 139.63 12.29L139.63 12.29Q139.38 12.29 139.38 12.58L139.38 12.58L139.39 12.76L138.91 12.80Q138.85 12.41 138.37 10.04ZM162.20 12.41L162.18 11.87L162.35 11.87Q162.74 11.87 162.87 11.73L162.87 11.73Q163.00 11.57 163.33 10.83L163.33 10.83L164.24 8.82L164.81 7.53Q165.08 6.97 165.12 6.86L165.12 6.86Q165.19 6.70 165.24 6.60Q165.29 6.51 165.31 6.45L165.31 6.45L165.40 6.21L166.83 2.74L167.13 2.74Q167.98 4.98 170.17 10.25L170.17 10.25Q170.62 11.34 170.81 11.64L170.81 11.64Q170.95 11.87 171.38 11.87L171.38 11.87L171.60 11.87L171.58 12.41L168.39 12.41L168.40 11.87L168.82 11.87Q169.44 11.87 169.44 11.70L169.44 11.70Q169.44 11.63 169.30 11.27L169.30 11.27L168.26 8.72L165.01 8.72L163.91 11.18Q163.77 11.50 163.77 11.63L163.77 11.63Q163.77 11.79 163.86 11.83Q163.96 11.87 164.34 11.87L164.34 11.87L164.92 11.87L164.92 12.41L162.20 12.41ZM166.69 4.79L165.28 8.10L168.02 8.10L166.69 4.79ZM189.29 3.64L188.90 3.64L188.92 3.08L192.02 3.08Q193.76 3.08 194.54 3.75L194.54 3.75Q195.32 4.42 195.31 5.37L195.31 5.37Q195.31 6.08 194.78 6.60L194.78 6.60Q194.22 7.14 193.52 7.35L193.52 7.35Q194.60 7.57 195.13 8.34L195.13 8.34Q195.65 9.08 195.64 10.01L195.64 10.01Q195.64 11.01 195.02 11.59L195.02 11.59Q194.41 12.13 193.46 12.28L193.46 12.28Q192.54 12.41 191.00 12.41L191.00 12.41L189.01 12.41L189.01 11.87L189.43 11.87Q189.79 11.87 189.91 11.80Q190.02 11.73 190.02 11.46L190.02 11.46L190.02 4.14Q190.02 3.81 189.87 3.72L189.87 3.72Q189.73 3.64 189.29 3.64L189.29 3.64ZM191.13 7.59L191.13 7.59L191.15 11.35Q191.15 11.63 191.32 11.71Q191.49 11.80 192.06 11.80L192.06 11.80Q194.32 11.80 194.32 9.91L194.32 9.91Q194.32 9.22 194.00 8.73L194.00 8.73Q193.68 8.24 193.16 8.02L193.16 8.02Q192.57 7.75 192.13 7.68L192.13 7.68Q191.65 7.59 191.13 7.59ZM191.15 4.01L191.15 7.19L192.53 7.19Q193.18 7.19 193.60 6.66L193.60 6.66Q194.00 6.15 194.01 5.54L194.01 5.54Q194.01 4.85 193.42 4.27L193.42 4.27Q192.85 3.69 191.57 3.69L191.57 3.69Q191.15 3.69 191.15 4.01L191.15 4.01ZM203.70 12.41L203.69 11.87L203.86 11.87Q204.25 11.87 204.38 11.73L204.38 11.73Q204.50 11.57 204.84 10.83L204.84 10.83L205.75 8.82L206.32 7.53Q206.59 6.97 206.63 6.86L206.63 6.86Q206.70 6.70 206.75 6.60Q206.80 6.51 206.81 6.45L206.81 6.45L206.91 6.21L208.34 2.74L208.63 2.74Q209.49 4.98 211.67 10.25L211.67 10.25Q212.13 11.34 212.32 11.64L212.32 11.64Q212.45 11.87 212.89 11.87L212.89 11.87L213.10 11.87L213.09 12.41L209.90 12.41L209.91 11.87L210.33 11.87Q210.94 11.87 210.94 11.70L210.94 11.70Q210.94 11.63 210.81 11.27L210.81 11.27L209.77 8.72L206.52 8.72L205.41 11.18Q205.28 11.50 205.28 11.63L205.28 11.63Q205.28 11.79 205.37 11.83Q205.47 11.87 205.85 11.87L205.85 11.87L206.42 11.87L206.42 12.41L203.70 12.41ZM208.20 4.79L206.79 8.10L209.53 8.10L208.20 4.79ZM220.81 10.04L220.81 10.04L221.30 9.98L221.48 10.85Q221.59 11.33 221.66 11.41Q221.73 11.49 222.14 11.64L222.14 11.64Q222.98 11.95 223.88 11.95L223.88 11.95Q224.66 11.95 225.20 11.49L225.20 11.49Q225.74 11.04 225.74 10.26L225.74 10.26Q225.74 9.65 225.28 9.21L225.28 9.21Q224.80 8.76 223.95 8.30L223.95 8.30L223.37 7.98Q222.63 7.55 222.39 7.36L222.39 7.36Q222.03 7.08 221.72 6.59Q221.41 6.10 221.41 5.46L221.41 5.46Q221.41 4.39 222.25 3.68Q223.09 2.97 224.20 2.97L224.20 2.97Q224.48 2.97 224.83 3.04L224.83 3.04Q225.03 3.08 225.36 3.17L225.36 3.17L225.60 3.25Q225.70 3.25 225.74 3.16L225.74 3.16Q225.79 3.05 225.79 2.98L225.79 2.98L225.80 2.88L226.28 2.85L226.50 5.41L225.99 5.43L225.87 4.18Q225.12 3.62 223.96 3.62L223.96 3.62Q223.32 3.62 222.81 4.05L222.81 4.05Q222.33 4.47 222.33 5.12L222.33 5.12Q222.33 5.72 222.78 6.17L222.78 6.17Q223.21 6.60 224.08 7.08L224.08 7.08L224.85 7.50Q225.80 8.03 226.34 8.59Q226.87 9.15 226.87 9.92L226.87 9.92Q226.87 10.99 226.02 11.76L226.02 11.76Q225.15 12.54 223.69 12.54L223.69 12.54Q223.13 12.54 222.63 12.41Q222.13 12.29 222.07 12.29L222.07 12.29Q221.82 12.29 221.82 12.58L221.82 12.58L221.83 12.76L221.35 12.80Q221.29 12.41 220.81 10.04ZM235.64 3.64L235.05 3.64L235.07 3.08L238.58 3.08L238.58 3.64L238.35 3.64Q237.80 3.64 237.63 3.73L237.63 3.73Q237.49 3.81 237.49 4.28L237.49 4.28L237.49 11.22Q237.49 11.68 237.60 11.77Q237.71 11.87 238.25 11.87L238.25 11.87L238.79 11.87L238.81 12.41L235.22 12.41L235.21 11.87L235.57 11.87Q236.13 11.87 236.25 11.77Q236.36 11.67 236.36 11.25L236.36 11.25L236.36 4.14Q236.36 3.77 236.26 3.71L236.26 3.71Q236.15 3.64 235.64 3.64L235.64 3.64ZM246.93 8.02L246.93 8.02Q246.93 6.86 247.40 5.83L247.40 5.83Q247.86 4.85 248.62 4.27L248.62 4.27Q249.36 3.69 250.26 3.37Q251.15 3.05 251.99 3.05L251.99 3.05Q252.86 3.05 253.53 3.16L253.53 3.16Q254.16 3.26 254.45 3.37L254.45 3.37Q254.76 3.48 254.80 3.48L254.80 3.48Q254.97 3.48 254.99 3.41L254.99 3.41Q255.01 3.33 255.01 3.09L255.01 3.09L255.01 2.97L255.55 2.97Q255.59 4.30 255.72 5.64L255.72 5.64L255.21 5.65Q255.19 5.40 255.17 5.26L255.17 5.26Q255.17 5.20 255.17 5.13Q255.16 5.07 255.15 5.02Q255.14 4.98 255.14 4.95L255.14 4.95Q255.12 4.84 255.12 4.74L255.12 4.74Q255.12 4.68 255.08 4.59L255.08 4.59Q255.08 4.57 255.05 4.55Q255.01 4.52 255.01 4.50L255.01 4.50Q254.99 4.44 254.92 4.41L254.92 4.41Q254.88 4.38 254.85 4.37Q254.82 4.36 254.80 4.35L254.80 4.35Q254.78 4.35 254.76 4.33Q254.73 4.31 254.69 4.29Q254.65 4.27 254.61 4.25L254.61 4.25Q254.39 4.16 254.36 4.14L254.36 4.14Q254.01 3.96 253.37 3.83L253.37 3.83Q252.70 3.71 252.03 3.71L252.03 3.71Q250.31 3.71 249.22 4.84L249.22 4.84Q248.11 5.99 248.12 7.62L248.12 7.62Q248.12 9.35 249.33 10.69L249.33 10.69Q250.54 12.02 252.36 12.02L252.36 12.02Q253.36 12.02 254.30 11.49L254.30 11.49Q255.25 10.94 255.28 10.58L255.28 10.58L255.32 9.41L255.81 9.41L255.73 11.45Q255.66 11.49 255.53 11.57L255.53 11.57Q255.48 11.60 255.01 11.85L255.01 11.85Q254.64 12.05 254.19 12.23L254.19 12.23Q253.83 12.39 253.18 12.51L253.18 12.51Q252.57 12.63 252.01 12.64L252.01 12.64Q249.63 12.64 248.27 11.39L248.27 11.39Q246.93 10.14 246.93 8.02ZM273.43 3.64L273.42 3.08L275.59 3.08L281.33 10.48L281.33 4.14Q281.33 3.81 281.17 3.72Q281.02 3.64 280.56 3.64L280.56 3.64L280.07 3.64L280.10 3.08L283.08 3.08L283.08 3.64L282.75 3.64Q282.29 3.64 282.14 3.75Q281.99 3.86 281.99 4.25L281.99 4.25L281.99 12.32L281.99 12.47Q281.99 12.52 281.98 12.57Q281.96 12.61 281.93 12.64L281.93 12.64Q281.91 12.65 281.86 12.65L281.86 12.65L281.67 12.65L281.61 12.65L281.58 12.65L281.55 12.64Q281.52 12.64 281.51 12.63Q281.50 12.61 281.50 12.60Q281.50 12.58 281.48 12.57L281.48 12.57Q281.46 12.54 281.43 12.50L281.43 12.50Q281.42 12.48 281.39 12.45Q281.37 12.41 281.36 12.40L281.36 12.40L275.26 4.56L275.32 11.22Q275.32 11.67 275.49 11.77L275.49 11.77Q275.65 11.87 276.36 11.87L276.36 11.87L276.60 11.87L276.60 12.41L273.66 12.41L273.66 11.87L274.08 11.87Q274.46 11.87 274.57 11.76L274.57 11.76Q274.66 11.66 274.67 11.25L274.67 11.25L274.67 3.80L274.52 3.64L273.43 3.64ZM290.83 3.64L290.81 3.08L298.03 3.08Q298.04 4.14 298.09 5.28L298.09 5.28L297.55 5.30Q297.53 4.66 297.48 4.25L297.48 4.25Q297.44 3.89 297.38 3.80L297.38 3.80Q297.33 3.71 297.21 3.69L297.21 3.69Q297.12 3.68 296.53 3.68L296.53 3.68L294.15 3.68Q293.60 3.68 293.46 3.77L293.46 3.77Q293.34 3.86 293.34 4.33L293.34 4.33L293.34 6.28Q293.34 6.69 293.39 6.76L293.39 6.76Q293.46 6.84 293.80 6.84L293.80 6.84L295.91 6.84Q296.28 6.84 296.36 6.73L296.36 6.73Q296.44 6.63 296.45 6.14L296.45 6.14L296.45 5.61L296.96 5.63L296.96 8.97L296.45 8.97L296.45 8.24Q296.45 7.66 296.37 7.57L296.37 7.57Q296.29 7.46 295.94 7.46L295.94 7.46L293.84 7.46Q293.51 7.46 293.42 7.54Q293.34 7.63 293.34 7.89L293.34 7.89L293.34 11.20Q293.34 11.57 293.42 11.67Q293.51 11.77 293.78 11.77L293.78 11.77Q296.70 11.75 297.23 11.69L297.23 11.69Q297.75 11.63 297.83 11.38L297.83 11.38L297.83 11.36L297.84 11.35L298.07 10.17L298.55 10.25L298.20 12.41L291.09 12.41L291.09 11.87L291.46 11.87Q292.02 11.87 292.11 11.80L292.11 11.80Q292.20 11.72 292.20 11.33L292.20 11.33L292.20 4.24Q292.20 3.82 292.05 3.73L292.05 3.73Q291.88 3.64 291.22 3.64L291.22 3.64L290.83 3.64ZM306.43 3.64L306.42 3.08L313.63 3.08Q313.65 4.14 313.70 5.28L313.70 5.28L313.15 5.30Q313.14 4.66 313.09 4.25L313.09 4.25Q313.04 3.89 312.99 3.80L312.99 3.80Q312.94 3.71 312.82 3.69L312.82 3.69Q312.72 3.68 312.14 3.68L312.14 3.68L309.76 3.68Q309.21 3.68 309.07 3.77L309.07 3.77Q308.94 3.86 308.94 4.33L308.94 4.33L308.94 6.28Q308.94 6.69 309.00 6.76L309.00 6.76Q309.07 6.84 309.41 6.84L309.41 6.84L311.52 6.84Q311.88 6.84 311.96 6.73L311.96 6.73Q312.05 6.63 312.05 6.14L312.05 6.14L312.05 5.61L312.57 5.63L312.57 8.97L312.05 8.97L312.05 8.24Q312.05 7.66 311.98 7.57L311.98 7.57Q311.90 7.46 311.55 7.46L311.55 7.46L309.45 7.46Q309.11 7.46 309.03 7.54Q308.94 7.63 308.94 7.89L308.94 7.89L308.94 11.20Q308.94 11.57 309.03 11.67Q309.11 11.77 309.39 11.77L309.39 11.77Q312.31 11.75 312.83 11.69L312.83 11.69Q313.35 11.63 313.43 11.38L313.43 11.38L313.44 11.36L313.45 11.35L313.67 10.17L314.15 10.25L313.80 12.41L306.70 12.41L306.70 11.87L307.07 11.87Q307.63 11.87 307.71 11.80L307.71 11.80Q307.81 11.72 307.81 11.33L307.81 11.33L307.81 4.24Q307.81 3.82 307.66 3.73L307.66 3.73Q307.49 3.64 306.83 3.64L306.83 3.64L306.43 3.64ZM322.07 3.64L322.03 3.08L325.81 3.08Q327.13 3.08 328.00 3.19L328.00 3.19Q328.82 3.29 329.51 3.69L329.51 3.69Q330.46 4.27 330.96 5.24L330.96 5.24Q331.45 6.21 331.45 7.39L331.45 7.39Q331.45 8.05 331.31 8.65L331.31 8.65Q331.15 9.29 330.76 9.98L330.76 9.98Q330.33 10.73 329.77 11.21L329.77 11.21Q329.14 11.76 328.17 12.08L328.17 12.08Q327.17 12.41 325.90 12.41L325.90 12.41L322.28 12.41L322.27 11.87L322.64 11.87Q323.16 11.87 323.26 11.79L323.26 11.79Q323.37 11.70 323.37 11.25L323.37 11.25L323.37 4.14Q323.37 3.77 323.28 3.71L323.28 3.71Q323.17 3.64 322.66 3.64L322.66 3.64L322.07 3.64ZM324.51 4.39L324.51 11.22Q324.51 11.67 324.67 11.77L324.67 11.77Q324.83 11.87 325.70 11.87L325.70 11.87Q326.75 11.87 327.54 11.61L327.54 11.61Q328.40 11.35 328.84 10.99L328.84 10.99Q329.33 10.58 329.63 10.05Q329.94 9.52 330.07 8.96L330.07 8.96Q330.19 8.41 330.19 7.82L330.19 7.82Q330.19 7.03 329.92 6.34L329.92 6.34Q329.66 5.65 329.13 5.05L329.13 5.05Q328.60 4.46 327.69 4.09L327.69 4.09Q326.76 3.73 325.60 3.73L325.60 3.73L325.08 3.73Q324.72 3.73 324.62 3.85L324.62 3.85Q324.51 3.99 324.51 4.39L324.51 4.39Z"></path></g></svg>