<svg data-v-fde0c5aa="" xmlns="http://www.w3.org/2000/svg" viewBox="0 0 300 300" class="font"><!----><defs data-v-fde0c5aa=""><!----></defs><rect data-v-fde0c5aa="" fill="transparent" x="0" y="0" width="300px" height="300px" class="logo-background-square"></rect><defs data-v-fde0c5aa=""><linearGradient data-v-fde0c5aa="" gradientTransform="rotate(25)" id="af5100cd-3f9e-4f6a-8d1c-64d8fca1b447" x1="0%" y1="0%" x2="100%" y2="0%"><stop data-v-fde0c5aa="" offset="0%" stop-color="#01695A" stop-opacity="1"></stop><stop data-v-fde0c5aa="" offset="100%" stop-color="#2CC26F" stop-opacity="1"></stop></linearGradient></defs><g data-v-fde0c5aa="" id="a5061360-12ea-4fd6-bd1d-5b036ca71a69" fill="url(#af5100cd-3f9e-4f6a-8d1c-64d8fca1b447)" transform="matrix(1.3776693447186135,0,0,1.3776693447186135,39.36627208993327,139.96367850018984)"><path d="M7.71 8.47L7.71 8.47L7.71 3.82L7.59 1.98L6.70 1.83L6.70 1.35L8.23 1.38L9.73 1.35L9.73 1.83L8.88 1.98L8.77 3.82L8.77 10.78L7.28 10.78L7.08 10.49L2.49 3.53L2.49 8.20L2.51 9.25Q2.51 9.52 2.54 9.73Q2.57 9.95 2.61 10.04L2.61 10.04L3.50 10.20L3.50 10.68L1.97 10.64L0.46 10.68L0.46 10.20L1.32 10.04L1.43 8.20L1.43 3.56L1.39 2.60L1.32 1.98L0.46 1.83L0.46 1.35L2.22 1.38L3.03 1.38Q4.22 3.25 5.36 4.93L5.36 4.93Q5.74 5.52 6.14 6.09L6.14 6.09Q6.73 6.97 6.92 7.27L6.92 7.27Q7.45 8.07 7.71 8.47ZM14.62 6.87L14.62 6.87L14.13 6.87Q13.49 6.87 12.96 7.02Q12.43 7.17 12.05 7.45L12.05 7.45Q11.30 7.91 11.30 8.69L11.30 8.69Q11.30 9.04 11.64 9.35Q11.99 9.65 12.56 9.65L12.56 9.65Q13.51 9.65 14.07 8.85Q14.62 8.04 14.62 6.87ZM14.79 9.04L14.79 9.04Q14.10 10.23 13.36 10.54Q12.62 10.85 11.86 10.85L11.86 10.85Q10.83 10.85 10.19 10.28Q9.56 9.70 9.56 8.89L9.56 8.89Q9.56 7.58 10.90 6.83Q12.24 6.09 14.62 6.09L14.62 6.09L14.62 5.35Q14.62 4.65 14.27 4.41Q13.92 4.17 13.12 4.17L13.12 4.17Q12.31 4.17 11.78 4.36L11.78 4.36Q11.49 4.47 11.30 4.55L11.30 4.55Q11.26 4.56 11.21 4.59L11.21 4.59L11.21 5.28L10.74 5.43L10.03 3.85L11.01 3.54Q11.97 3.22 13.45 3.22L13.45 3.22Q15.74 3.22 16.07 4.58Q16.39 5.93 16.39 9.58L16.39 9.58L16.39 9.81L17.12 10.18L17.12 10.68L16.12 10.66L15.70 10.65L14.92 10.69Q14.89 10.63 14.87 10.53Q14.85 10.43 14.85 10.21L14.85 10.21Q14.85 9.97 14.83 9.68Q14.82 9.39 14.79 9.04ZM24.96 5.43L24.96 7.94Q24.96 8.35 24.97 8.72Q24.99 9.08 25.03 9.53Q25.08 9.98 25.10 10.04L25.10 10.04L25.86 10.20L25.86 10.68L24.15 10.64L23.34 10.68L23.34 10.20L23.33 10.04L23.33 6.43Q23.33 5.40 23.02 4.90L23.02 4.90Q22.75 4.40 21.99 4.40L21.99 4.40Q21.24 4.40 20.78 5.04L20.78 5.04Q20.36 5.67 20.36 6.73L20.36 6.73L20.36 7.94Q20.36 8.42 20.37 8.75Q20.39 9.08 20.43 9.39L20.43 9.39L20.51 10.04L21.26 10.20L21.26 10.68L19.55 10.64L17.84 10.68L17.84 10.20L18.59 10.04L18.66 9.39Q18.68 9.09 18.71 8.70Q18.73 8.32 18.73 7.94L18.73 7.94L18.73 3.42L18.73 3.22L18.73 3.05L18.73 2.91Q18.73 2.36 18.68 1.99L18.68 1.99Q18.68 1.73 18.66 1.53Q18.63 1.32 18.60 1.22L18.60 1.22L17.72 1.05L17.72 0.56L19.87 0.20L20.49 0.20L20.39 1.25L20.36 2.12L20.36 4.48Q20.90 3.84 21.52 3.53Q22.14 3.22 22.84 3.22L22.84 3.22Q23.81 3.22 24.38 3.82Q24.96 4.43 24.96 5.43L24.96 5.43ZM31.22 6.87L31.22 6.87L30.73 6.87Q30.09 6.87 29.55 7.02Q29.02 7.17 28.64 7.45L28.64 7.45Q27.89 7.91 27.89 8.69L27.89 8.69Q27.89 9.04 28.24 9.35Q28.58 9.65 29.16 9.65L29.16 9.65Q30.11 9.65 30.66 8.85Q31.22 8.04 31.22 6.87ZM31.38 9.04L31.38 9.04Q30.69 10.23 29.95 10.54Q29.22 10.85 28.45 10.85L28.45 10.85Q27.43 10.85 26.79 10.28Q26.15 9.70 26.15 8.89L26.15 8.89Q26.15 7.58 27.49 6.83Q28.83 6.09 31.22 6.09L31.22 6.09L31.22 5.35Q31.22 4.65 30.87 4.41Q30.51 4.17 29.72 4.17L29.72 4.17Q28.91 4.17 28.38 4.36L28.38 4.36Q28.08 4.47 27.89 4.55L27.89 4.55Q27.86 4.56 27.81 4.59L27.81 4.59L27.81 5.28L27.33 5.43L26.63 3.85L27.61 3.54Q28.57 3.22 30.05 3.22L30.05 3.22Q32.34 3.22 32.66 4.58Q32.99 5.93 32.99 9.58L32.99 9.58L32.99 9.81L33.72 10.18L33.72 10.68L32.72 10.66L32.30 10.65L31.51 10.69Q31.49 10.63 31.47 10.53Q31.44 10.43 31.44 10.21L31.44 10.21Q31.44 9.97 31.43 9.68Q31.42 9.39 31.38 9.04ZM36.09 4.21L36.09 8.03Q36.09 8.91 36.28 9.29L36.28 9.29Q36.45 9.67 36.94 9.67L36.94 9.67Q37.17 9.67 37.46 9.54L37.46 9.54Q37.70 9.41 37.90 9.22L37.90 9.22L38.34 9.71Q38.20 9.98 37.65 10.41Q37.10 10.84 36.28 10.84L36.28 10.84Q35.45 10.84 34.93 10.35L34.93 10.35Q34.46 9.85 34.46 9.02L34.46 9.02L34.46 4.21L33.50 4.21L33.50 3.72L34.46 3.42L34.40 1.85L36.15 1.49L36.09 3.42L38.03 3.35L37.65 4.25L36.09 4.21ZM39.65 1.12L39.65 1.12Q39.65 0.73 39.94 0.44Q40.22 0.15 40.62 0.15L40.62 0.15Q41.01 0.15 41.30 0.44Q41.58 0.73 41.58 1.12L41.58 1.12Q41.58 1.53 41.30 1.81Q41.01 2.10 40.62 2.10L40.62 2.10Q40.22 2.10 39.94 1.81Q39.65 1.53 39.65 1.12ZM41.44 5.09L41.44 7.94Q41.44 8.35 41.45 8.72Q41.46 9.08 41.51 9.53Q41.56 9.98 41.58 10.04L41.58 10.04L42.33 10.20L42.33 10.68L40.62 10.64L38.90 10.68L38.90 10.20L39.65 10.04L39.72 9.39Q39.75 9.09 39.77 8.70Q39.80 8.32 39.80 7.94L39.80 7.94L39.80 6.41L39.80 6.21L39.80 6.03L39.80 5.89Q39.80 5.35 39.75 4.98L39.75 4.98Q39.75 4.72 39.72 4.52Q39.70 4.31 39.66 4.21L39.66 4.21L38.78 4.04L38.78 3.55Q39.10 3.51 39.37 3.49Q39.64 3.46 39.87 3.41L39.87 3.41L40.96 3.17L41.57 3.17L41.46 4.22L41.44 5.09ZM49.99 6.22L52.62 6.22L51.28 2.37L49.99 6.22ZM55.92 10.03L56.69 10.20L56.69 10.68L54.82 10.64L52.96 10.68L52.96 10.20L53.84 10.04L52.93 7.09L49.70 7.09L48.84 10.04L49.67 10.20L49.67 10.68L48.16 10.64L46.66 10.68L46.66 10.20L47.39 10.07Q47.74 9.22 48.24 7.96L48.24 7.96Q48.71 6.80 49.07 5.84L49.07 5.84Q49.78 3.93 50.58 1.62L50.58 1.62L51.37 1.43L52.14 1.17L52.71 1.36Q53.09 2.50 53.44 3.51L53.44 3.51Q53.86 4.73 54.21 5.70L54.21 5.70Q54.94 7.70 55.92 10.03L55.92 10.03ZM64.26 5.43L64.26 7.94Q64.26 8.35 64.27 8.72Q64.28 9.08 64.33 9.53Q64.38 9.98 64.40 10.04L64.40 10.04L65.15 10.20L65.15 10.68L63.45 10.64L62.64 10.68L62.64 10.20L62.62 10.04L62.62 6.43Q62.62 5.40 62.31 4.90L62.31 4.90Q62.04 4.40 61.29 4.40L61.29 4.40Q60.54 4.40 60.07 5.04L60.07 5.04Q59.66 5.67 59.66 6.73L59.66 6.73L59.66 7.94Q59.66 8.42 59.67 8.75Q59.68 9.08 59.73 9.39L59.73 9.39L59.80 10.04L60.55 10.20L60.55 10.68L58.85 10.64L57.13 10.68L57.13 10.20L57.88 10.04L57.95 9.39Q57.98 9.09 58.00 8.70Q58.03 8.32 58.03 7.94L58.03 7.94L58.03 6.40L58.03 6.22L58.03 6.06Q58.03 5.81 58.01 5.55Q58.00 5.28 57.97 5.03L57.97 5.03L57.89 4.19L57.01 4.02L57.01 3.54Q57.32 3.54 57.57 3.50L57.57 3.50Q57.94 3.43 58.12 3.41L58.12 3.41Q58.62 3.32 58.74 3.30Q58.86 3.28 59.23 3.17L59.23 3.17L59.72 3.17L59.66 4.48Q60.19 3.84 60.81 3.53Q61.43 3.22 62.14 3.22L62.14 3.22Q63.10 3.22 63.68 3.82Q64.26 4.43 64.26 5.43L64.26 5.43ZM70.36 4.00L69.71 3.86L69.71 3.38L70.95 3.42L72.22 3.38L72.22 3.85L71.79 4.00Q71.05 5.71 70.38 7.49L70.38 7.49L69.11 10.99Q68.55 12.61 67.58 13.51Q66.62 14.42 65.29 14.42L65.29 14.42Q65.10 14.42 64.92 14.41Q64.75 14.39 64.60 14.36L64.60 14.36Q64.32 14.32 64.11 14.20L64.11 14.20L64.61 12.32L65.07 12.37L65.15 13.02L65.44 13.12L65.81 13.15Q66.62 13.15 67.30 12.41Q67.97 11.66 68.20 10.93L68.20 10.93L68.28 10.68L67.66 10.68Q67.09 8.92 66.44 7.28Q65.79 5.64 65.07 4.02L65.07 4.02L64.50 3.86L64.50 3.38L66.08 3.42L67.68 3.38L67.68 3.85L67.00 4.00Q67.41 5.47 67.87 6.76L67.87 6.76L68.77 9.52L69.63 6.77Q69.99 5.49 70.36 4.00L70.36 4.00ZM75.16 4.21L75.16 8.03Q75.16 8.91 75.35 9.29L75.35 9.29Q75.52 9.67 76.01 9.67L76.01 9.67Q76.24 9.67 76.53 9.54L76.53 9.54Q76.77 9.41 76.97 9.22L76.97 9.22L77.41 9.71Q77.27 9.98 76.72 10.41Q76.17 10.84 75.35 10.84L75.35 10.84Q74.52 10.84 74.00 10.35L74.00 10.35Q73.53 9.85 73.53 9.02L73.53 9.02L73.53 4.21L72.57 4.21L72.57 3.72L73.53 3.42L73.47 1.85L75.22 1.49L75.16 3.42L77.10 3.35L76.72 4.25L75.16 4.21ZM78.72 1.12L78.72 1.12Q78.72 0.73 79.01 0.44Q79.29 0.15 79.69 0.15L79.69 0.15Q80.08 0.15 80.37 0.44Q80.65 0.73 80.65 1.12L80.65 1.12Q80.65 1.53 80.37 1.81Q80.08 2.10 79.69 2.10L79.69 2.10Q79.29 2.10 79.01 1.81Q78.72 1.53 78.72 1.12ZM80.51 5.09L80.51 7.94Q80.51 8.35 80.52 8.72Q80.53 9.08 80.58 9.53Q80.63 9.98 80.65 10.04L80.65 10.04L81.40 10.20L81.40 10.68L79.69 10.64L77.97 10.68L77.97 10.20L78.72 10.04L78.79 9.39Q78.82 9.09 78.84 8.70Q78.86 8.32 78.86 7.94L78.86 7.94L78.86 6.41L78.86 6.21L78.86 6.03L78.86 5.89Q78.86 5.35 78.82 4.98L78.82 4.98Q78.82 4.72 78.79 4.52Q78.77 4.31 78.73 4.21L78.73 4.21L77.85 4.04L77.85 3.55Q78.17 3.51 78.44 3.49Q78.71 3.46 78.94 3.41L78.94 3.41L80.03 3.17L80.64 3.17L80.53 4.22L80.51 5.09ZM93.58 5.43L93.58 7.94Q93.58 8.42 93.59 8.75Q93.60 9.08 93.65 9.39L93.65 9.39L93.72 10.04L94.47 10.20L94.47 10.68L92.77 10.64L91.95 10.68L91.95 6.43Q91.95 5.42 91.67 4.90L91.67 4.90Q91.38 4.40 90.67 4.40L90.67 4.40Q89.97 4.40 89.52 5.04L89.52 5.04Q89.11 5.68 89.11 6.73L89.11 6.73L89.11 7.94Q89.11 8.42 89.12 8.75Q89.14 9.08 89.18 9.39L89.18 9.39L89.25 10.04L90.01 10.20L90.01 10.68L88.30 10.64L86.60 10.68L86.60 10.20L87.35 10.04L87.41 9.39Q87.48 8.79 87.48 7.94L87.48 7.94L87.48 6.43Q87.48 5.42 87.21 4.90L87.21 4.90Q86.91 4.40 86.20 4.40L86.20 4.40Q85.47 4.40 85.05 5.04Q84.64 5.68 84.64 6.73L84.64 6.73L84.64 7.94Q84.64 8.35 84.66 8.72Q84.67 9.08 84.71 9.53Q84.76 9.98 84.79 10.04L84.79 10.04L85.54 10.20L85.54 10.68L83.83 10.64L82.12 10.68L82.12 10.20L82.87 10.04L82.94 9.39Q82.96 9.09 82.99 8.70Q83.01 8.32 83.01 7.94L83.01 7.94L83.01 6.40L83.01 6.22L83.01 6.06Q83.01 5.81 83.00 5.55Q82.99 5.28 82.95 5.03L82.95 5.03L82.88 4.19L82.00 4.02L82.00 3.54Q82.30 3.54 82.55 3.50L82.55 3.50Q82.92 3.43 83.09 3.41L83.09 3.41Q83.49 3.35 83.68 3.31Q83.87 3.26 84.21 3.17L84.21 3.17L84.70 3.17L84.64 4.48Q85.18 3.84 85.76 3.53Q86.35 3.22 87.04 3.22L87.04 3.22Q87.79 3.22 88.28 3.59Q88.78 3.97 88.98 4.58L88.98 4.58Q89.15 4.33 89.36 4.11Q89.58 3.90 89.91 3.66L89.91 3.66Q90.51 3.22 91.52 3.22L91.52 3.22Q92.45 3.22 93.01 3.82Q93.58 4.43 93.58 5.43L93.58 5.43ZM100.76 8.42L101.29 8.92Q101.04 9.28 100.70 9.60Q100.37 9.93 99.89 10.23L99.89 10.23Q98.95 10.84 97.89 10.84L97.89 10.84Q96.18 10.84 95.20 9.85Q94.22 8.86 94.22 7.11L94.22 7.11Q94.22 5.50 95.38 4.36Q96.53 3.22 98.17 3.22L98.17 3.22Q99.51 3.22 100.34 4.02Q101.17 4.83 101.17 6.08L101.17 6.08L101.17 6.49L96.06 6.49Q96.06 8.03 96.61 8.84Q97.17 9.65 98.36 9.65L98.36 9.65Q99.18 9.65 99.82 9.21Q100.45 8.77 100.76 8.42L100.76 8.42ZM96.11 5.79L96.11 5.79L99.41 5.64L99.41 5.48Q99.41 4.77 99.07 4.38Q98.74 4.00 98.06 4.00L98.06 4.00Q97.17 4.00 96.59 4.67L96.59 4.67Q96.26 5.10 96.11 5.79ZM108.81 3.82L108.81 3.82L108.81 7.26Q108.81 7.72 108.82 8.21Q108.84 8.70 108.85 9.00L108.85 9.00L108.90 9.75L109.97 9.75Q111.24 9.75 112.08 9.63Q112.92 9.52 113.06 9.45L113.06 9.45L113.55 8.51L114.05 8.70L113.61 10.64L107.94 10.64L106.08 10.68L106.08 10.20L106.95 10.04L107.06 8.20L107.06 3.82L106.95 1.98L106.08 1.83L106.08 1.35L107.94 1.38L109.95 1.35L109.95 1.83L108.94 1.98L108.85 2.78Q108.81 3.34 108.81 3.82ZM119.30 6.87L119.30 6.87L118.82 6.87Q118.17 6.87 117.64 7.02Q117.11 7.17 116.73 7.45L116.73 7.45Q115.98 7.91 115.98 8.69L115.98 8.69Q115.98 9.04 116.33 9.35Q116.67 9.65 117.24 9.65L117.24 9.65Q118.20 9.65 118.75 8.85Q119.30 8.04 119.30 6.87ZM119.47 9.04L119.47 9.04Q118.78 10.23 118.04 10.54Q117.30 10.85 116.54 10.85L116.54 10.85Q115.51 10.85 114.88 10.28Q114.24 9.70 114.24 8.89L114.24 8.89Q114.24 7.58 115.58 6.83Q116.92 6.09 119.30 6.09L119.30 6.09L119.30 5.35Q119.30 4.65 118.95 4.41Q118.60 4.17 117.80 4.17L117.80 4.17Q116.99 4.17 116.47 4.36L116.47 4.36Q116.17 4.47 115.98 4.55L115.98 4.55Q115.94 4.56 115.90 4.59L115.90 4.59L115.90 5.28L115.42 5.43L114.72 3.85L115.69 3.54Q116.66 3.22 118.14 3.22L118.14 3.22Q120.42 3.22 120.75 4.58Q121.08 5.93 121.08 9.58L121.08 9.58L121.08 9.81L121.81 10.18L121.81 10.68L120.81 10.66L120.39 10.65L119.60 10.69Q119.58 10.63 119.55 10.53Q119.53 10.43 119.53 10.21L119.53 10.21Q119.53 9.97 119.52 9.68Q119.51 9.39 119.47 9.04ZM128.57 3.22L128.51 4.35L128.51 8.04L128.53 9.33Q128.53 9.48 128.54 9.58Q128.55 9.67 128.63 10.04L128.63 10.04L129.40 10.20L129.38 10.68L128.20 10.64L126.95 10.68L126.95 9.32Q126.44 10.08 125.78 10.46Q125.12 10.84 124.38 10.84L124.38 10.84Q123.45 10.84 122.83 10.22Q122.21 9.60 122.21 8.65L122.21 8.65L122.21 6.05Q122.21 5.52 122.16 5.00L122.16 5.00Q122.16 4.72 122.13 4.51Q122.09 4.30 122.08 4.23L122.08 4.23L121.20 4.06L121.20 3.57Q121.48 3.57 121.62 3.56Q121.76 3.55 122.29 3.44L122.29 3.44Q122.85 3.37 123.37 3.22L123.37 3.22L123.97 3.22L123.86 5.64L123.86 7.55Q123.86 8.59 124.17 9.12Q124.47 9.65 125.12 9.65L125.12 9.65Q125.96 9.65 126.42 8.91Q126.88 8.17 126.88 6.92L126.88 6.92L126.88 6.05Q126.88 5.81 126.87 5.55Q126.86 5.29 126.82 5.00L126.82 5.00L126.75 4.23L125.87 4.06L125.87 3.57Q126.12 3.57 126.33 3.54Q126.54 3.51 126.91 3.44L126.91 3.44Q127.42 3.37 127.95 3.22L127.95 3.22L128.57 3.22ZM137.15 5.43L137.15 7.94Q137.15 8.35 137.16 8.72Q137.18 9.08 137.22 9.53Q137.27 9.98 137.30 10.04L137.30 10.04L138.05 10.20L138.05 10.68L136.34 10.64L135.53 10.68L135.53 10.20L135.52 10.04L135.52 6.43Q135.52 5.40 135.21 4.90L135.21 4.90Q134.94 4.40 134.19 4.40L134.19 4.40Q133.43 4.40 132.97 5.04L132.97 5.04Q132.55 5.67 132.55 6.73L132.55 6.73L132.55 7.94Q132.55 8.42 132.57 8.75Q132.58 9.08 132.62 9.39L132.62 9.39L132.70 10.04L133.45 10.20L133.45 10.68L131.74 10.64L130.03 10.68L130.03 10.20L130.78 10.04L130.85 9.39Q130.87 9.09 130.90 8.70Q130.92 8.32 130.92 7.94L130.92 7.94L130.92 6.40L130.92 6.22L130.92 6.06Q130.92 5.81 130.91 5.55Q130.90 5.28 130.86 5.03L130.86 5.03L130.79 4.19L129.91 4.02L129.91 3.54Q130.22 3.54 130.47 3.50L130.47 3.50Q130.84 3.43 131.02 3.41L131.02 3.41Q131.52 3.32 131.64 3.30Q131.75 3.28 132.12 3.17L132.12 3.17L132.61 3.17L132.55 4.48Q133.09 3.84 133.71 3.53Q134.33 3.22 135.03 3.22L135.03 3.22Q136.00 3.22 136.57 3.82Q137.15 4.43 137.15 5.43L137.15 5.43ZM143.18 10.68L143.18 9.48Q142.72 10.20 142.15 10.52Q141.58 10.84 140.97 10.84L140.97 10.84Q139.59 10.84 138.75 9.88Q137.91 8.92 137.91 7.39L137.91 7.39Q137.91 5.54 139.02 4.38Q140.13 3.22 141.89 3.22L141.89 3.22Q142.25 3.22 142.53 3.28L142.53 3.28L143.06 3.35L143.06 3.42L143.03 1.99Q143.03 1.68 143.00 1.52Q142.98 1.36 142.93 1.22L142.93 1.22L142.05 1.05L142.05 0.56L144.22 0.20L144.83 0.20L144.73 1.25L144.69 2.12L144.69 7.98Q144.69 8.38 144.71 8.75Q144.73 9.11 144.74 9.33L144.74 9.33Q144.74 9.78 144.85 10.04L144.85 10.04Q144.96 10.04 145.01 10.06Q145.06 10.07 145.22 10.10L145.22 10.10L145.60 10.20L145.60 10.68L144.40 10.64L143.18 10.68ZM143.09 6.84L143.09 6.84L143.09 4.48Q142.97 4.40 142.64 4.28Q142.31 4.17 141.75 4.17L141.75 4.17Q140.70 4.17 140.18 4.85Q139.67 5.53 139.67 6.85L139.67 6.85Q139.67 8.15 140.13 8.90Q140.60 9.65 141.50 9.65L141.50 9.65Q142.32 9.65 142.70 8.92Q143.09 8.19 143.09 6.84ZM148.76 7.08L148.76 7.94Q148.76 8.42 148.77 8.75Q148.78 9.08 148.84 9.54Q148.90 10.00 148.92 10.04L148.92 10.04L149.82 10.20L149.82 10.68L147.95 10.64L146.23 10.68L146.23 10.20L146.98 10.04L147.05 9.39Q147.08 9.09 147.10 8.70Q147.13 8.32 147.13 7.94L147.13 7.94L147.13 6.40L147.13 6.22L147.13 6.06Q147.13 5.81 147.11 5.55Q147.10 5.28 147.07 5.03L147.07 5.03L146.99 4.19L146.11 4.02L146.11 3.54Q146.40 3.54 146.64 3.50L146.64 3.50Q146.98 3.43 147.15 3.41L147.15 3.41Q147.49 3.35 147.69 3.31Q147.88 3.26 148.20 3.17L148.20 3.17L148.61 3.17L148.57 5.24Q148.90 4.24 149.60 3.72L149.60 3.72Q149.94 3.48 150.28 3.35Q150.62 3.22 150.97 3.22L150.97 3.22Q151.12 3.22 151.25 3.24Q151.39 3.26 151.55 3.31Q151.70 3.35 151.80 3.43L151.80 3.43L151.38 4.48L151.15 5.27Q150.68 5.16 150.66 5.05L150.66 5.05Q150.66 4.91 150.69 4.84L150.69 4.84Q150.69 4.55 150.60 4.52Q150.51 4.48 150.35 4.48L150.35 4.48Q149.71 4.48 149.23 5.23Q148.76 5.98 148.76 7.08L148.76 7.08ZM158.29 4.00L157.65 3.86L157.65 3.38L158.89 3.42L160.15 3.38L160.15 3.85L159.72 4.00Q158.98 5.71 158.31 7.49L158.31 7.49L157.04 10.99Q156.48 12.61 155.51 13.51Q154.55 14.42 153.23 14.42L153.23 14.42Q153.03 14.42 152.86 14.41Q152.68 14.39 152.53 14.36L152.53 14.36Q152.25 14.32 152.05 14.20L152.05 14.20L152.55 12.32L153.00 12.37L153.08 13.02L153.37 13.12L153.74 13.15Q154.55 13.15 155.23 12.41Q155.91 11.66 156.13 10.93L156.13 10.93L156.22 10.68L155.60 10.68Q155.02 8.92 154.38 7.28Q153.73 5.64 153.00 4.02L153.00 4.02L152.43 3.86L152.43 3.38L154.01 3.42L155.61 3.38L155.61 3.85L154.93 4.00Q155.35 5.47 155.80 6.76L155.80 6.76L156.70 9.52L157.56 6.77Q157.92 5.49 158.29 4.00L158.29 4.00Z"></path></g><!----><!----></svg>